#!OML:ASF F:\VICON\USERDATA\INSTALL\rory3\rory3.ASF
:FULLY-SPECIFIED
:DEGREES
392
root 0.187105 17.5924 39.6944 -2.14477 -2.08756 -3.56655
lowerback 9.66655 1.85472 3.85082
upperback 0.590492 2.92184 0.746382
thorax -4.6509 1.37056 -1.77733
lowerneck -16.1399 -3.70057 -1.64213
upperneck 20.7715 -5.05903 1.4516
head 9.28385 -2.32842 0.129511
rclavicle 1.45982e-015 -3.926e-015
rhumerus -22.3721 -16.3548 -81.4287
rradius 33.7764
rwrist -2.55441
rhand -18.5742 22.7518
rfingers 7.12502
rthumb 7.71614 -7.08746
lclavicle 1.45982e-015 -3.926e-015
lhumerus -37.0123 15.679 76.7861
lradius 12.7558
lwrist -10.1577
lhand -22.2548 26.9312
lfingers 7.12502
lthumb 4.16269 56.8703
rfemur 6.74003 4.18953 28.6391
rtibia 45.7557
rfoot -1.56805 1.39211
rtoes -6.90101
lfemur -24.5187 -4.55748 -17.1798
ltibia 27.4641
lfoot -1.68128 -6.98651
ltoes -0.0211245
393
root 0.212173 17.6094 39.8933 -2.35214 -2.18409 -3.43182
lowerback 9.59814 1.85757 3.81666
upperback 0.699232 2.91447 0.732304
thorax -4.50012 1.37224 -1.76638
lowerneck -15.7862 -3.72692 -1.63908
upperneck 20.5193 -5.08324 1.40253
head 9.13015 -2.35061 0.118515
rclavicle 4.22728e-015 -4.27387e-015
rhumerus -22.8284 -16.7092 -81.3142
rradius 33.6533
rwrist -2.39294
rhand -18.3604 22.8589
rfingers 7.12502
rthumb 7.92253 -6.97261
lclavicle 4.22728e-015 -4.27387e-015
lhumerus -37.0022 15.813 76.7924
lradius 12.7977
lwrist -9.8688
lhand -22.8718 26.5459
lfingers 7.12502
lthumb 3.56693 56.4958
rfemur 5.61015 4.01404 28.1855
rtibia 48.1988
rfoot 1.69376 1.91856
rtoes -6.44133
lfemur -23.9254 -4.23844 -17.6772
ltibia 28.2003
lfoot -1.96924 -7.35722
ltoes 1.207
394
root 0.235157 17.6379 40.0938 -2.6412 -2.28839 -3.11791
lowerback 9.76873 1.87985 3.57428
upperback 0.696683 2.9234 0.683375
thorax -4.60702 1.37858 -1.69013
lowerneck -15.487 -3.66348 -1.74448
upperneck 20.4955 -5.00949 1.56355
head 9.07336 -2.30963 0.205826
rclavicle 1.37651e-014 4.08751e-015
rhumerus -23.3272 -17.028 -81.1599
rradius 33.3362
rwrist -2.21605
rhand -18.3045 22.8667
rfingers 7.12502
rthumb 7.97645 -6.96275
lclavicle 1.37651e-014 4.08751e-015
lhumerus -37.2036 15.6994 76.8864
lradius 13.1382
lwrist -9.26586
lhand -23.2201 25.9984
lfingers 7.12502
lthumb 3.23058 55.9537
rfemur 4.48348 3.80367 27.5536
rtibia 50.7107
rfoot 5.215 2.4206
rtoes -2.06355
lfemur -23.2096 -4.24316 -18.2884
ltibia 28.629
lfoot -1.99294 -7.60349
ltoes 6.49362
395
root 0.253896 17.6626 40.295 -2.82279 -2.56751 -2.56514
lowerback 9.94728 1.97568 3.10119
upperback 0.67226 2.99743 0.500845
thorax -4.74247 1.42002 -1.63335
lowerneck -15.5956 -3.54333 -1.64254
upperneck 20.6585 -4.8848 1.62037
head 9.1463 -2.23467 0.220616
rclavicle 3.5094e-014 -1.98785e-016
rhumerus -23.8313 -17.3934 -81.1369
rradius 33.1943
rwrist -2.15021
rhand -17.9698 23.0144
rfingers 7.12502
rthumb 8.29946 -6.80253
lclavicle 3.5094e-014 -1.98785e-016
lhumerus -37.3055 14.8765 77.2683
lradius 13.6887
lwrist -8.03753
lhand -23.1993 26.356
lfingers 7.12502
lthumb 3.25065 56.311
rfemur 3.155 3.78767 26.6725
rtibia 53.2951
rfoot 8.35805 3.0036
rtoes 2.48527
lfemur -22.3678 -4.13921 -19.1667
ltibia 28.9041
lfoot -2.63585 -7.12771
ltoes 6.55896
396
root 0.274459 17.6831 40.4904 -2.86876 -2.91171 -1.94486
lowerback 9.92481 2.09481 2.56508
upperback 0.661925 3.08694 0.332011
thorax -4.75493 1.47357 -1.52022
lowerneck -15.3338 -3.43502 -1.4063
upperneck 20.2605 -4.71832 1.32479
head 8.94379 -2.17687 0.110405
rclavicle 3.90464e-014 1.67725e-015
rhumerus -24.0932 -17.6867 -81.0663
rradius 32.7412
rwrist -1.78304
rhand -17.676 22.9285
rfingers 7.12502
rthumb 8.58302 -6.87705
lclavicle 3.90464e-014 1.67725e-015
lhumerus -37.3922 14.3861 77.5589
lradius 14.1432
lwrist -7.02509
lhand -23.6254 26.3229
lfingers 7.12502
lthumb 2.83913 56.2837
rfemur 1.51409 3.82363 25.6717
rtibia 55.9631
rfoot 11.2254 3.372
rtoes 5.60947
lfemur -21.623 -4.15882 -20.0709
ltibia 29.2399
lfoot -3.44566 -6.14876
ltoes 3.54823
397
root 0.291939 17.6971 40.6673 -2.94291 -3.30221 -1.82595
lowerback 9.89553 2.15207 2.43917
upperback 0.806312 3.14666 0.36605
thorax -4.59367 1.50987 -1.41705
lowerneck -15.3119 -3.43709 -1.43255
upperneck 20.0034 -4.63792 1.01435
head 8.84281 -2.17719 0.0223964
rclavicle -1.62291e-014 -9.57272e-015
rhumerus -23.9996 -17.6501 -81.1026
rradius 32.2145
rwrist -1.52163
rhand -17.6185 22.6096
rfingers 7.12502
rthumb 8.63848 -7.19369
lclavicle -1.62291e-014 -9.57272e-015
lhumerus -37.1878 13.9356 78.0191
lradius 14.6869
lwrist -5.98452
lhand -23.7095 26.7108
lfingers 7.12502
lthumb 2.75795 56.6727
rfemur -0.151903 4.0148 25.3512
rtibia 58.5989
rfoot 13.5731 2.95355
rtoes 9.86357
lfemur -20.9308 -4.2422 -20.3388
ltibia 29.6523
lfoot -4.17211 -5.31485
ltoes 1.37578
398
root 0.299292 17.7018 40.8267 -3.01723 -3.6831 -2.14044
lowerback 10.1808 2.1715 2.64476
upperback 0.862113 3.21044 0.522555
thorax -4.68997 1.53704 -1.38954
lowerneck -15.4618 -3.36012 -1.25911
upperneck 20.0825 -4.46665 0.54107
head 8.87861 -2.13332 -0.148638
rclavicle 1.76018e-014 -1.03865e-014
rhumerus -23.9619 -17.5102 -81.1831
rradius 31.8046
rwrist -1.34956
rhand -17.551 22.4556
rfingers 7.12502
rthumb 8.70366 -7.34499
lclavicle 1.76018e-014 -1.03865e-014
lhumerus -36.9617 13.3379 78.5111
lradius 15.2087
lwrist -4.82929
lhand -23.5157 26.8022
lfingers 7.12502
lthumb 2.94508 56.7616
rfemur -1.9062 4.26089 25.6916
rtibia 61.2497
rfoot 14.3945 2.02514
rtoes 10.8558
lfemur -20.454 -4.36491 -20.0541
ltibia 30.2057
lfoot -4.92403 -4.65
ltoes 0.164416
399
root 0.309333 17.7119 41.0235 -3.3985 -3.79478 -1.72932
lowerback 10.4055 2.19104 2.27865
upperback 0.885046 3.19693 0.44674
thorax -4.80742 1.53507 -1.27159
lowerneck -14.7843 -3.23813 -1.45705
upperneck 19.6215 -4.29321 0.735708
head 8.60588 -2.05312 -0.0127976
rclavicle 7.43796e-014 5.91384e-015
rhumerus -24.3258 -17.5362 -81.1197
rradius 31.3125
rwrist -1.13494
rhand -17.6162 22.7198
rfingers 7.12502
rthumb 8.64069 -7.08333
lclavicle 7.43796e-014 5.91384e-015
lhumerus -36.9568 12.2069 79.1401
lradius 15.6072
lwrist -3.18699
lhand -23.306 26.811
lfingers 7.12502
lthumb 3.14758 56.7675
rfemur -3.07951 4.03257 25.1005
rtibia 63.6954
rfoot 13.8195 0.923947
rtoes 8.1736
lfemur -19.5282 -4.66968 -20.6831
ltibia 30.6957
lfoot -5.78767 -3.83869
ltoes 0.114822
400
root 0.311151 17.7114 41.1901 -3.55926 -4.11446 -1.59113
lowerback 10.7698 2.2403 1.99377
upperback 0.863529 3.24019 0.47723
thorax -5.0493 1.55831 -1.10422
lowerneck -15.2158 -3.41564 -1.6646
upperneck 20.2958 -4.47406 0.646609
head 8.9199 -2.15698 -0.0450164
rclavicle -4.82845e-014 8.19987e-015
rhumerus -24.4156 -17.5605 -81.1304
rradius 30.6505
rwrist -0.660198
rhand -17.8556 23.1818
rfingers 7.12502
rthumb 8.40968 -6.63078
lclavicle -4.82845e-014 8.19987e-015
lhumerus -36.6544 11.2572 79.7401
lradius 15.8142
lwrist -1.82298
lhand -23.1379 27.6863
lfingers 7.12502
lthumb 3.30994 57.6404
rfemur -4.69506 3.9501 24.9247
rtibia 66.0668
rfoot 12.9152 -0.847934
rtoes 6.59072
lfemur -18.9791 -4.74354 -20.9098
ltibia 31.1045
lfoot -6.39119 -3.14257
ltoes -0.411165
401
root 0.330209 17.7138 41.3533 -3.37018 -3.77487 -1.05075
lowerback 10.6725 2.04361 1.48415
upperback 0.805465 2.91126 0.369024
thorax -5.08529 1.40562 -0.880957
lowerneck -15.2149 -3.35123 -1.72836
upperneck 20.2858 -4.37175 0.658724
head 8.91698 -2.11285 -0.0178546
rclavicle 8.87387e-015 -1.87355e-014
rhumerus -24.3291 -17.4371 -81.198
rradius 30.0087
rwrist -0.216628
rhand -17.7171 23.8129
rfingers 7.12502
rthumb 8.54334 -5.99426
lclavicle 8.87387e-015 -1.87355e-014
lhumerus -36.3339 10.7631 80.0939
lradius 16.0811
lwrist -1.1134
lhand -23.1459 28.6469
lfingers 7.12502
lthumb 3.30219 58.6011
rfemur -6.55143 3.12878 24.0498
rtibia 68.1779
rfoot 11.4301 -2.32665
rtoes 7.85324
lfemur -18.7039 -5.22387 -21.7233
ltibia 31.3398
lfoot -6.91757 -2.71295
ltoes -0.850916
402
root 0.348072 17.7275 41.5343 -3.42739 -3.57667 -0.947504
lowerback 10.575 1.91872 1.54407
upperback 0.804873 2.75084 0.37064
thorax -5.03241 1.32602 -0.885582
lowerneck -14.7176 -3.26978 -2.06585
upperneck 20.0366 -4.2745 1.07158
head 8.75765 -2.0532 0.199848
rclavicle 1.34366e-014 2.48481e-015
rhumerus -24.5728 -17.611 -81.0703
rradius 29.5645
rwrist 0.191739
rhand -17.3521 24.0298
rfingers 7.12502
rthumb 8.89563 -5.76264
lclavicle 1.34366e-014 2.48481e-015
lhumerus -36.2337 10.1191 80.4639
lradius 16.4421
lwrist -0.354256
lhand -23.2402 28.7462
lfingers 7.12502
lthumb 3.21117 58.7018
rfemur -8.04621 2.40514 23.7088
rtibia 69.9898
rfoot 9.88618 -3.5952
rtoes 11.1898
lfemur -18.0396 -5.43602 -22.0631
ltibia 31.5023
lfoot -7.41039 -2.43178
ltoes -0.830841
403
root 0.356407 17.7413 41.7173 -3.72592 -3.65566 -1.20954
lowerback 10.7384 1.89547 1.89933
upperback 0.82897 2.77071 0.472525
thorax -5.08628 1.32831 -0.987341
lowerneck -14.1871 -3.24881 -2.24292
upperneck 19.965 -4.25125 1.24173
head 8.64436 -2.04185 0.298541
rclavicle 2.92804e-014 1.59028e-015
rhumerus -24.7908 -17.9018 -80.9258
rradius 28.9373
rwrist 0.750867
rhand -17.4678 23.5538
rfingers 7.12502
rthumb 8.78396 -6.24338
lclavicle 2.92804e-014 1.59028e-015
lhumerus -36.13 9.12039 80.9576
lradius 16.7691
lwrist 0.757859
lhand -25.0417 28.3957
lfingers 7.12502
lthumb 1.47132 58.3704
rfemur -9.2249 1.92812 23.9199
rtibia 71.5072
rfoot 8.46693 -4.78654
rtoes 12.3364
lfemur -16.9997 -5.47759 -21.9312
ltibia 31.4433
lfoot -7.84865 -2.12801
ltoes -0.691423
404
root 0.365387 17.7531 41.8949 -3.87469 -3.59393 -0.946881
lowerback 10.8568 1.81232 1.60636
upperback 0.858306 2.62704 0.47265
thorax -5.13878 1.26336 -0.805691
lowerneck -14.2206 -3.37652 -2.59501
upperneck 20.0827 -4.40302 1.48988
head 8.70821 -2.11328 0.420596
rclavicle -1.1455e-014 -2.57426e-014
rhumerus -24.7468 -18.3199 -80.7657
rradius 28.0873
rwrist 1.77325
rhand -17.5958 23.8654
rfingers 7.12502
rthumb 8.66038 -5.937
lclavicle -1.1455e-014 -2.57426e-014
lhumerus -35.8076 8.68951 81.2338
lradius 17.0129
lwrist 1.17717
lhand -27.6328 28.0291
lfingers 7.12502
lthumb -1.03129 58.0064
rfemur -10.5317 1.34721 23.53
rtibia 72.8243
rfoot 7.20717 -5.69535
rtoes 12.2608
lfemur -16.113 -5.57063 -22.384
ltibia 31.3308
lfoot -8.3488 -1.95605
ltoes 0.190805
